<svg xmlns="http://www.w3.org/2000/svg" viewBox="0 0 64 64" width="64" height="64">
  <!-- Star -->
  <polygon points="32,2 35,12 45,12 37,18 40,28 32,22 24,28 27,18 19,12 29,12" fill="#FFD700"/>
  <!-- Tree layers -->
  <polygon points="32,14 48,30 16,30" fill="#228B22"/>
  <polygon points="32,22 52,40 12,40" fill="#1E7A1E"/>
  <polygon points="32,30 56,52 8,52" fill="#166B16"/>
  <!-- Trunk -->
  <rect x="27" y="52" width="10" height="10" rx="1" fill="#8B4513"/>
  <!-- Ornaments -->
  <circle cx="28" cy="27" r="2" fill="#FF0000"/>
  <circle cx="36" cy="27" r="2" fill="#FFD700"/>
  <circle cx="24" cy="36" r="2" fill="#1E90FF"/>
  <circle cx="40" cy="36" r="2" fill="#FF0000"/>
  <circle cx="32" cy="34" r="2" fill="#FF69B4"/>
  <circle cx="20" cy="46" r="2" fill="#FFD700"/>
  <circle cx="44" cy="46" r="2" fill="#1E90FF"/>
  <circle cx="32" cy="46" r="2" fill="#FF0000"/>
</svg>
